<?xml version="1.0" encoding="UTF-8" standalone="no"?>
<!-- Created with Inkscape (http://www.inkscape.org/) -->

<svg
   version="1.1"
   id="svg1"
   width="1024"
   height="1024"
   viewBox="0 0 1024 1024"
   sodipodi:docname="Logo.svg"
   xml:space="preserve"
   inkscape:version="1.4.2 (ebf0e940d0, 2025-05-08)"
   xmlns:inkscape="http://www.inkscape.org/namespaces/inkscape"
   xmlns:sodipodi="http://sodipodi.sourceforge.net/DTD/sodipodi-0.dtd"
   xmlns="http://www.w3.org/2000/svg"
   xmlns:svg="http://www.w3.org/2000/svg"><defs
     id="defs1" /><sodipodi:namedview
     id="namedview1"
     pagecolor="#ffffff"
     bordercolor="#111111"
     borderopacity="1"
     inkscape:showpageshadow="0"
     inkscape:pageopacity="0"
     inkscape:pagecheckerboard="1"
     inkscape:deskcolor="#d1d1d1"
     inkscape:zoom="0.41064453"
     inkscape:cx="466.34007"
     inkscape:cy="773.17479"
     inkscape:window-width="1920"
     inkscape:window-height="1022"
     inkscape:window-x="0"
     inkscape:window-y="26"
     inkscape:window-maximized="1"
     inkscape:current-layer="g1" /><g
     inkscape:groupmode="layer"
     inkscape:label="Image"
     id="g1"><g
       style="opacity:1;fill:none"
       id="g2"
       transform="matrix(1.0711629,0,0,1.0711629,183.81765,252.243)"><path
         d="m 524.669,485 v -80.5 h 12.305 l 35.19,58.765 h -6.44 L 600.339,404.5 h 12.305 l 0.115,80.5 h -14.145 l -0.115,-58.305 h 2.99 l -29.44,49.105 h -6.67 l -29.9,-49.105 h 3.45 V 485 Z"
         fill="#bcb5a4"
         id="path1" /><path
         d="m 287.435,485 v -80.5 h 33.12 c 7.13,0 13.225,1.15 18.285,3.45 5.137,2.3 9.085,5.597 11.845,9.89 2.76,4.293 4.14,9.392 4.14,15.295 0,5.903 -1.38,11.002 -4.14,15.295 -2.76,4.217 -6.708,7.475 -11.845,9.775 -5.06,2.223 -11.155,3.335 -18.285,3.335 h -24.84 l 6.67,-6.785 V 485 Z m 52.67,0 -20.355,-29.21 h 15.985 l 20.47,29.21 z m -37.72,-28.635 -6.67,-7.13 h 24.15 c 6.594,0 11.539,-1.418 14.835,-4.255 3.374,-2.837 5.06,-6.785 5.06,-11.845 0,-5.137 -1.686,-9.085 -5.06,-11.845 -3.296,-2.76 -8.241,-4.14 -14.835,-4.14 h -24.15 l 6.67,-7.36 z"
         fill="#bcb5a4"
         id="path2" /><path
         d="m 384.205,485 v -80.5 h 14.95 V 485 Z"
         fill="#bcb5a4"
         id="path3" /><path
         d="m 461.969,485 c -10.887,0 -19.429,-3.061 -25.629,-9.183 -6.123,-6.123 -9.185,-14.967 -9.185,-26.532 V 404.5 h 14.742 v 44.218 c 0,8.164 1.739,14.097 5.216,17.801 3.554,3.704 8.543,5.555 14.969,5.555 6.426,0 11.378,-1.851 14.856,-5.555 3.477,-3.704 5.216,-9.637 5.216,-17.801 V 404.5 h 14.515 v 44.785 c 0,11.565 -3.099,20.409 -9.299,26.532 -6.123,6.122 -14.59,9.183 -25.401,9.183 z"
         fill="#bcb5a4"
         id="path4" /><path
         d="m 217.805,485 v -67.85 h -26.68 V 404.5 h 68.31 v 12.65 h -26.68 V 485 Z"
         fill="#bcb5a4"
         id="path5" /><path
         d="m 0,485 v -80.5 h 14.95 v 67.85 H 57.04 V 485 Z"
         fill="#bcb5a4"
         id="path6" /><path
         d="M 116.665,485 V 453.145 L 120,462.345 85.04,404.5 h 15.985 l 28.06,46.575 h -8.97 l 28.29,-46.575 h 14.72 l -34.96,57.845 3.45,-9.2 V 485 Z"
         fill="#bcb5a4"
         id="path7" /><path
         d="m 306.421,120.361 -25,46.139 h -21 L 168.921,0 h 72.5 z"
         fill="#c4ae7b"
         id="path8" /><path
         d="m 295.921,166 h 68 l 88.5,-165.5 h -68.5 z"
         fill="#c4ae7b"
         id="path9" /><path
         d="m 354.921,178 h -66 l -89.5,177 102.5,-74.5 z"
         fill="#c4ae7b"
         id="path10" /><path
         d="m 295.921,166 h 68 l 88.5,-165.5 h -68.5 z"
         stroke="#c4ae7b"
         id="path11" /><path
         d="m 354.921,178 h -66 l -89.5,177 102.5,-74.5 z"
         stroke="#c4ae7b"
         id="path12" /></g></g></svg>
