<svg width="601" height="81" viewBox="0 0 601 81" fill="none" xmlns="http://www.w3.org/2000/svg">
<g clip-path="url(#clip0_3_31)">
<path d="M512 80.3662V0H524.305L559.495 58.6673H553.055L587.67 0H599.975L600.09 80.3662H585.945L585.83 22.1581H588.82L559.38 71.1815H552.71L522.81 22.1581H526.26V80.3662H512Z" fill="#BCB5A4"/>
<path d="M448.814 80.365C437.927 80.365 429.385 77.3087 423.185 71.197C417.062 65.0843 414 56.2555 414 44.7101V0H428.742V44.1442C428.742 52.2938 430.481 58.2175 433.958 61.915C437.512 65.6126 442.501 67.4613 448.927 67.4613C455.353 67.4613 460.305 65.6126 463.783 61.915C467.26 58.2175 468.999 52.2938 468.999 44.1442V0H483.514V44.7101C483.514 56.2555 480.415 65.0843 474.215 71.197C468.092 77.3087 459.625 80.365 448.814 80.365Z" fill="#BCB5A4"/>
<path d="M371 80.3662V0H385.95V80.3662H371Z" fill="#BCB5A4"/>
<path d="M274 80.3662V0H307.12C314.25 0 320.345 1.14809 325.405 3.44427C330.541 5.74044 334.49 9.03167 337.25 13.3178C340.01 17.604 341.39 22.6939 341.39 28.5874C341.39 34.4809 340.01 39.5708 337.25 43.857C334.49 48.0667 330.541 51.3196 325.405 53.6157C320.345 55.8354 314.25 56.9452 307.12 56.9452H282.28L288.95 50.1715V80.3662H274ZM326.67 80.3662L306.315 51.2048H322.3L342.77 80.3662H326.67ZM288.95 51.7788L282.28 44.6607H306.43C313.023 44.6607 317.968 43.2447 321.265 40.4127C324.638 37.5807 326.325 33.639 326.325 28.5874C326.325 23.4592 324.638 19.5175 321.265 16.7621C317.968 14.0067 313.023 12.629 306.43 12.629H282.28L288.95 5.28121V51.7788Z" fill="#BCB5A4"/>
<path d="M204.68 80.3662V12.629H178V0H246.31V12.629H219.63V80.3662H204.68Z" fill="#BCB5A4"/>
<path d="M0 80.3662V0H14.95V67.7372H57.04V80.3662H0Z" fill="#BCB5A4"/>
<path d="M127.287 40.5185L115.347 63.4959L115.292 63.6011L115.195 63.6704L92.1025 80.3712L91.3633 79.7413L111.527 40.0632L111.667 39.7902H127.666L127.287 40.5185ZM149.25 0.735076L129.312 37.8354L129.17 38.0987H112.717L113.109 37.3646L132.936 0.26416L133.077 0H149.646L149.25 0.735076ZM116.147 27.5323L110.484 38.086H105.728L85 0H101.424L116.147 27.5323Z" fill="#C4AE7B"/>
</g>
<defs>
<clipPath id="clip0_3_31">
<rect width="600.095" height="80.365" fill="white"/>
</clipPath>
</defs>
</svg>
